<svg enable-background="new 0 0 69.1 67.47" viewBox="0 0 69.1 67.47" xmlns="http://www.w3.org/2000/svg"><g fill="none" stroke="#193b8b" stroke-miterlimit="10" stroke-width="3"><path d="m1.5 1.5h66.1v6.39h-66.1z"/><path d="m1.5 59.58h66.1v6.39h-66.1z" transform="matrix(-1 -0 0 -1 69.1046 125.5508)"/><path d="m4.25 7.9 1.92 24.28c.07.91.83 1.61 1.74 1.61h4.54"/><path d="m20.66 7.9-1.92 24.28c-.07.91-.83 1.61-1.74 1.61h-4.54"/><path d="m48.45 7.9 1.92 24.28c.07.91.83 1.61 1.74 1.61h4.54"/><path d="m64.85 7.9-1.92 24.28c-.07.91-.83 1.61-1.74 1.61h-4.54"/><path d="m26.95 7.9 2.31 24.31c.09.9.84 1.58 1.74 1.58h7.11c.9 0 1.65-.69 1.74-1.58l2.31-24.31"/><path d="m64.85 59.68-1.92-24.28c-.07-.91-.83-1.61-1.74-1.61h-4.54"/><path d="m48.45 59.68 1.92-24.28c.07-.91.83-1.61 1.74-1.61h4.54"/><path d="m20.66 59.68-1.92-24.28c-.07-.91-.83-1.61-1.74-1.61h-4.54"/><path d="m4.25 59.68 1.92-24.28c.07-.91.83-1.61 1.74-1.61h4.54"/><path d="m42.16 59.68-2.31-24.31c-.09-.9-.84-1.58-1.74-1.58h-7.11c-.9 0-1.65.69-1.74 1.58l-2.31 24.31"/></g></svg>